<?xml version="1.0" encoding="utf-8" standalone="no"?>
<!DOCTYPE svg PUBLIC "-//W3C//DTD SVG 1.1//EN"
  "http://www.w3.org/Graphics/SVG/1.1/DTD/svg11.dtd">
<svg xmlns:xlink="http://www.w3.org/1999/xlink" width="576pt" height="432pt" viewBox="0 0 576 432" xmlns="http://www.w3.org/2000/svg" version="1.1">
 <metadata>
  <rdf:RDF xmlns:dc="http://purl.org/dc/elements/1.1/" xmlns:cc="http://creativecommons.org/ns#" xmlns:rdf="http://www.w3.org/1999/02/22-rdf-syntax-ns#">
   <cc:Work>
    <dc:type rdf:resource="http://purl.org/dc/dcmitype/StillImage"/>
    <dc:date>2023-03-14T10:44:33.552309</dc:date>
    <dc:format>image/svg+xml</dc:format>
    <dc:creator>
     <cc:Agent>
      <dc:title>Matplotlib v3.5.2, https://matplotlib.org/</dc:title>
     </cc:Agent>
    </dc:creator>
   </cc:Work>
  </rdf:RDF>
 </metadata>
 <defs>
  <style type="text/css">*{stroke-linejoin: round; stroke-linecap: butt}</style>
 </defs>
 <g id="figure_1">
  <g id="patch_1">
   <path d="M 0 432 
L 576 432 
L 576 0 
L 0 0 
z
" style="fill: #ffffff"/>
  </g>
  <g id="axes_1">
   <g id="patch_2">
    <path d="M 54.59 385 
L 565.2 385 
L 565.2 28.8 
L 54.59 28.8 
z
" style="fill: #ffffff"/>
   </g>
   <g id="matplotlib.axis_1">
    <g id="xtick_1">
     <g id="line2d_1">
      <defs>
       <path id="m6e3bbcdd8d" d="M 0 0 
L 0 3.5 
" style="stroke: #000000; stroke-width: 0.8"/>
      </defs>
      <g>
       <use xlink:href="#m6e3bbcdd8d" x="77.799545" y="385" style="stroke: #000000; stroke-width: 0.8"/>
      </g>
     </g>
     <g id="text_1">
      <!-- 0 -->
      <g transform="translate(73.982045 401.118125)scale(0.12 -0.12)">
       <defs>
        <path id="DejaVuSans-30" d="M 2034 4250 
Q 1547 4250 1301 3770 
Q 1056 3291 1056 2328 
Q 1056 1369 1301 889 
Q 1547 409 2034 409 
Q 2525 409 2770 889 
Q 3016 1369 3016 2328 
Q 3016 3291 2770 3770 
Q 2525 4250 2034 4250 
z
M 2034 4750 
Q 2819 4750 3233 4129 
Q 3647 3509 3647 2328 
Q 3647 1150 3233 529 
Q 2819 -91 2034 -91 
Q 1250 -91 836 529 
Q 422 1150 422 2328 
Q 422 3509 836 4129 
Q 1250 4750 2034 4750 
z
" transform="scale(0.015625)"/>
       </defs>
       <use xlink:href="#DejaVuSans-30"/>
      </g>
     </g>
    </g>
    <g id="xtick_2">
     <g id="line2d_2">
      <g>
       <use xlink:href="#m6e3bbcdd8d" x="171.575487" y="385" style="stroke: #000000; stroke-width: 0.8"/>
      </g>
     </g>
     <g id="text_2">
      <!-- 20 -->
      <g transform="translate(163.940487 401.118125)scale(0.12 -0.12)">
       <defs>
        <path id="DejaVuSans-32" d="M 1228 531 
L 3431 531 
L 3431 0 
L 469 0 
L 469 531 
Q 828 903 1448 1529 
Q 2069 2156 2228 2338 
Q 2531 2678 2651 2914 
Q 2772 3150 2772 3378 
Q 2772 3750 2511 3984 
Q 2250 4219 1831 4219 
Q 1534 4219 1204 4116 
Q 875 4013 500 3803 
L 500 4441 
Q 881 4594 1212 4672 
Q 1544 4750 1819 4750 
Q 2544 4750 2975 4387 
Q 3406 4025 3406 3419 
Q 3406 3131 3298 2873 
Q 3191 2616 2906 2266 
Q 2828 2175 2409 1742 
Q 1991 1309 1228 531 
z
" transform="scale(0.015625)"/>
       </defs>
       <use xlink:href="#DejaVuSans-32"/>
       <use xlink:href="#DejaVuSans-30" x="63.623047"/>
      </g>
     </g>
    </g>
    <g id="xtick_3">
     <g id="line2d_3">
      <g>
       <use xlink:href="#m6e3bbcdd8d" x="265.351428" y="385" style="stroke: #000000; stroke-width: 0.8"/>
      </g>
     </g>
     <g id="text_3">
      <!-- 40 -->
      <g transform="translate(257.716428 401.118125)scale(0.12 -0.12)">
       <defs>
        <path id="DejaVuSans-34" d="M 2419 4116 
L 825 1625 
L 2419 1625 
L 2419 4116 
z
M 2253 4666 
L 3047 4666 
L 3047 1625 
L 3713 1625 
L 3713 1100 
L 3047 1100 
L 3047 0 
L 2419 0 
L 2419 1100 
L 313 1100 
L 313 1709 
L 2253 4666 
z
" transform="scale(0.015625)"/>
       </defs>
       <use xlink:href="#DejaVuSans-34"/>
       <use xlink:href="#DejaVuSans-30" x="63.623047"/>
      </g>
     </g>
    </g>
    <g id="xtick_4">
     <g id="line2d_4">
      <g>
       <use xlink:href="#m6e3bbcdd8d" x="359.127369" y="385" style="stroke: #000000; stroke-width: 0.8"/>
      </g>
     </g>
     <g id="text_4">
      <!-- 60 -->
      <g transform="translate(351.492369 401.118125)scale(0.12 -0.12)">
       <defs>
        <path id="DejaVuSans-36" d="M 2113 2584 
Q 1688 2584 1439 2293 
Q 1191 2003 1191 1497 
Q 1191 994 1439 701 
Q 1688 409 2113 409 
Q 2538 409 2786 701 
Q 3034 994 3034 1497 
Q 3034 2003 2786 2293 
Q 2538 2584 2113 2584 
z
M 3366 4563 
L 3366 3988 
Q 3128 4100 2886 4159 
Q 2644 4219 2406 4219 
Q 1781 4219 1451 3797 
Q 1122 3375 1075 2522 
Q 1259 2794 1537 2939 
Q 1816 3084 2150 3084 
Q 2853 3084 3261 2657 
Q 3669 2231 3669 1497 
Q 3669 778 3244 343 
Q 2819 -91 2113 -91 
Q 1303 -91 875 529 
Q 447 1150 447 2328 
Q 447 3434 972 4092 
Q 1497 4750 2381 4750 
Q 2619 4750 2861 4703 
Q 3103 4656 3366 4563 
z
" transform="scale(0.015625)"/>
       </defs>
       <use xlink:href="#DejaVuSans-36"/>
       <use xlink:href="#DejaVuSans-30" x="63.623047"/>
      </g>
     </g>
    </g>
    <g id="xtick_5">
     <g id="line2d_5">
      <g>
       <use xlink:href="#m6e3bbcdd8d" x="452.90331" y="385" style="stroke: #000000; stroke-width: 0.8"/>
      </g>
     </g>
     <g id="text_5">
      <!-- 80 -->
      <g transform="translate(445.26831 401.118125)scale(0.12 -0.12)">
       <defs>
        <path id="DejaVuSans-38" d="M 2034 2216 
Q 1584 2216 1326 1975 
Q 1069 1734 1069 1313 
Q 1069 891 1326 650 
Q 1584 409 2034 409 
Q 2484 409 2743 651 
Q 3003 894 3003 1313 
Q 3003 1734 2745 1975 
Q 2488 2216 2034 2216 
z
M 1403 2484 
Q 997 2584 770 2862 
Q 544 3141 544 3541 
Q 544 4100 942 4425 
Q 1341 4750 2034 4750 
Q 2731 4750 3128 4425 
Q 3525 4100 3525 3541 
Q 3525 3141 3298 2862 
Q 3072 2584 2669 2484 
Q 3125 2378 3379 2068 
Q 3634 1759 3634 1313 
Q 3634 634 3220 271 
Q 2806 -91 2034 -91 
Q 1263 -91 848 271 
Q 434 634 434 1313 
Q 434 1759 690 2068 
Q 947 2378 1403 2484 
z
M 1172 3481 
Q 1172 3119 1398 2916 
Q 1625 2713 2034 2713 
Q 2441 2713 2670 2916 
Q 2900 3119 2900 3481 
Q 2900 3844 2670 4047 
Q 2441 4250 2034 4250 
Q 1625 4250 1398 4047 
Q 1172 3844 1172 3481 
z
" transform="scale(0.015625)"/>
       </defs>
       <use xlink:href="#DejaVuSans-38"/>
       <use xlink:href="#DejaVuSans-30" x="63.623047"/>
      </g>
     </g>
    </g>
    <g id="xtick_6">
     <g id="line2d_6">
      <g>
       <use xlink:href="#m6e3bbcdd8d" x="546.679252" y="385" style="stroke: #000000; stroke-width: 0.8"/>
      </g>
     </g>
     <g id="text_6">
      <!-- 100 -->
      <g transform="translate(535.226752 401.118125)scale(0.12 -0.12)">
       <defs>
        <path id="DejaVuSans-31" d="M 794 531 
L 1825 531 
L 1825 4091 
L 703 3866 
L 703 4441 
L 1819 4666 
L 2450 4666 
L 2450 531 
L 3481 531 
L 3481 0 
L 794 0 
L 794 531 
z
" transform="scale(0.015625)"/>
       </defs>
       <use xlink:href="#DejaVuSans-31"/>
       <use xlink:href="#DejaVuSans-30" x="63.623047"/>
       <use xlink:href="#DejaVuSans-30" x="127.246094"/>
      </g>
     </g>
    </g>
    <g id="text_7">
     <!-- epoch -->
     <g transform="translate(288.575625 418.251563)scale(0.14 -0.14)">
      <defs>
       <path id="DejaVuSans-65" d="M 3597 1894 
L 3597 1613 
L 953 1613 
Q 991 1019 1311 708 
Q 1631 397 2203 397 
Q 2534 397 2845 478 
Q 3156 559 3463 722 
L 3463 178 
Q 3153 47 2828 -22 
Q 2503 -91 2169 -91 
Q 1331 -91 842 396 
Q 353 884 353 1716 
Q 353 2575 817 3079 
Q 1281 3584 2069 3584 
Q 2775 3584 3186 3129 
Q 3597 2675 3597 1894 
z
M 3022 2063 
Q 3016 2534 2758 2815 
Q 2500 3097 2075 3097 
Q 1594 3097 1305 2825 
Q 1016 2553 972 2059 
L 3022 2063 
z
" transform="scale(0.015625)"/>
       <path id="DejaVuSans-70" d="M 1159 525 
L 1159 -1331 
L 581 -1331 
L 581 3500 
L 1159 3500 
L 1159 2969 
Q 1341 3281 1617 3432 
Q 1894 3584 2278 3584 
Q 2916 3584 3314 3078 
Q 3713 2572 3713 1747 
Q 3713 922 3314 415 
Q 2916 -91 2278 -91 
Q 1894 -91 1617 61 
Q 1341 213 1159 525 
z
M 3116 1747 
Q 3116 2381 2855 2742 
Q 2594 3103 2138 3103 
Q 1681 3103 1420 2742 
Q 1159 2381 1159 1747 
Q 1159 1113 1420 752 
Q 1681 391 2138 391 
Q 2594 391 2855 752 
Q 3116 1113 3116 1747 
z
" transform="scale(0.015625)"/>
       <path id="DejaVuSans-6f" d="M 1959 3097 
Q 1497 3097 1228 2736 
Q 959 2375 959 1747 
Q 959 1119 1226 758 
Q 1494 397 1959 397 
Q 2419 397 2687 759 
Q 2956 1122 2956 1747 
Q 2956 2369 2687 2733 
Q 2419 3097 1959 3097 
z
M 1959 3584 
Q 2709 3584 3137 3096 
Q 3566 2609 3566 1747 
Q 3566 888 3137 398 
Q 2709 -91 1959 -91 
Q 1206 -91 779 398 
Q 353 888 353 1747 
Q 353 2609 779 3096 
Q 1206 3584 1959 3584 
z
" transform="scale(0.015625)"/>
       <path id="DejaVuSans-63" d="M 3122 3366 
L 3122 2828 
Q 2878 2963 2633 3030 
Q 2388 3097 2138 3097 
Q 1578 3097 1268 2742 
Q 959 2388 959 1747 
Q 959 1106 1268 751 
Q 1578 397 2138 397 
Q 2388 397 2633 464 
Q 2878 531 3122 666 
L 3122 134 
Q 2881 22 2623 -34 
Q 2366 -91 2075 -91 
Q 1284 -91 818 406 
Q 353 903 353 1747 
Q 353 2603 823 3093 
Q 1294 3584 2113 3584 
Q 2378 3584 2631 3529 
Q 2884 3475 3122 3366 
z
" transform="scale(0.015625)"/>
       <path id="DejaVuSans-68" d="M 3513 2113 
L 3513 0 
L 2938 0 
L 2938 2094 
Q 2938 2591 2744 2837 
Q 2550 3084 2163 3084 
Q 1697 3084 1428 2787 
Q 1159 2491 1159 1978 
L 1159 0 
L 581 0 
L 581 4863 
L 1159 4863 
L 1159 2956 
Q 1366 3272 1645 3428 
Q 1925 3584 2291 3584 
Q 2894 3584 3203 3211 
Q 3513 2838 3513 2113 
z
" transform="scale(0.015625)"/>
      </defs>
      <use xlink:href="#DejaVuSans-65"/>
      <use xlink:href="#DejaVuSans-70" x="61.523438"/>
      <use xlink:href="#DejaVuSans-6f" x="125"/>
      <use xlink:href="#DejaVuSans-63" x="186.181641"/>
      <use xlink:href="#DejaVuSans-68" x="241.162109"/>
     </g>
    </g>
   </g>
   <g id="matplotlib.axis_2">
    <g id="ytick_1">
     <g id="line2d_7">
      <defs>
       <path id="m1fc79eb993" d="M 0 0 
L -3.5 0 
" style="stroke: #000000; stroke-width: 0.8"/>
      </defs>
      <g>
       <use xlink:href="#m1fc79eb993" x="54.59" y="368.826825" style="stroke: #000000; stroke-width: 0.8"/>
      </g>
     </g>
     <g id="text_8">
      <!-- 0.0 -->
      <g transform="translate(28.50625 373.385887)scale(0.12 -0.12)">
       <defs>
        <path id="DejaVuSans-2e" d="M 684 794 
L 1344 794 
L 1344 0 
L 684 0 
L 684 794 
z
" transform="scale(0.015625)"/>
       </defs>
       <use xlink:href="#DejaVuSans-30"/>
       <use xlink:href="#DejaVuSans-2e" x="63.623047"/>
       <use xlink:href="#DejaVuSans-30" x="95.410156"/>
      </g>
     </g>
    </g>
    <g id="ytick_2">
     <g id="line2d_8">
      <g>
       <use xlink:href="#m1fc79eb993" x="54.59" y="295.707095" style="stroke: #000000; stroke-width: 0.8"/>
      </g>
     </g>
     <g id="text_9">
      <!-- 0.5 -->
      <g transform="translate(28.50625 300.266157)scale(0.12 -0.12)">
       <defs>
        <path id="DejaVuSans-35" d="M 691 4666 
L 3169 4666 
L 3169 4134 
L 1269 4134 
L 1269 2991 
Q 1406 3038 1543 3061 
Q 1681 3084 1819 3084 
Q 2600 3084 3056 2656 
Q 3513 2228 3513 1497 
Q 3513 744 3044 326 
Q 2575 -91 1722 -91 
Q 1428 -91 1123 -41 
Q 819 9 494 109 
L 494 744 
Q 775 591 1075 516 
Q 1375 441 1709 441 
Q 2250 441 2565 725 
Q 2881 1009 2881 1497 
Q 2881 1984 2565 2268 
Q 2250 2553 1709 2553 
Q 1456 2553 1204 2497 
Q 953 2441 691 2322 
L 691 4666 
z
" transform="scale(0.015625)"/>
       </defs>
       <use xlink:href="#DejaVuSans-30"/>
       <use xlink:href="#DejaVuSans-2e" x="63.623047"/>
       <use xlink:href="#DejaVuSans-35" x="95.410156"/>
      </g>
     </g>
    </g>
    <g id="ytick_3">
     <g id="line2d_9">
      <g>
       <use xlink:href="#m1fc79eb993" x="54.59" y="222.587365" style="stroke: #000000; stroke-width: 0.8"/>
      </g>
     </g>
     <g id="text_10">
      <!-- 1.0 -->
      <g transform="translate(28.50625 227.146428)scale(0.12 -0.12)">
       <use xlink:href="#DejaVuSans-31"/>
       <use xlink:href="#DejaVuSans-2e" x="63.623047"/>
       <use xlink:href="#DejaVuSans-30" x="95.410156"/>
      </g>
     </g>
    </g>
    <g id="ytick_4">
     <g id="line2d_10">
      <g>
       <use xlink:href="#m1fc79eb993" x="54.59" y="149.467635" style="stroke: #000000; stroke-width: 0.8"/>
      </g>
     </g>
     <g id="text_11">
      <!-- 1.5 -->
      <g transform="translate(28.50625 154.026698)scale(0.12 -0.12)">
       <use xlink:href="#DejaVuSans-31"/>
       <use xlink:href="#DejaVuSans-2e" x="63.623047"/>
       <use xlink:href="#DejaVuSans-35" x="95.410156"/>
      </g>
     </g>
    </g>
    <g id="ytick_5">
     <g id="line2d_11">
      <g>
       <use xlink:href="#m1fc79eb993" x="54.59" y="76.347905" style="stroke: #000000; stroke-width: 0.8"/>
      </g>
     </g>
     <g id="text_12">
      <!-- 2.0 -->
      <g transform="translate(28.50625 80.906968)scale(0.12 -0.12)">
       <use xlink:href="#DejaVuSans-32"/>
       <use xlink:href="#DejaVuSans-2e" x="63.623047"/>
       <use xlink:href="#DejaVuSans-30" x="95.410156"/>
      </g>
     </g>
    </g>
    <g id="text_13">
     <!-- Loss -->
     <g transform="translate(21.594688 222.254063)rotate(-90)scale(0.14 -0.14)">
      <defs>
       <path id="DejaVuSans-4c" d="M 628 4666 
L 1259 4666 
L 1259 531 
L 3531 531 
L 3531 0 
L 628 0 
L 628 4666 
z
" transform="scale(0.015625)"/>
       <path id="DejaVuSans-73" d="M 2834 3397 
L 2834 2853 
Q 2591 2978 2328 3040 
Q 2066 3103 1784 3103 
Q 1356 3103 1142 2972 
Q 928 2841 928 2578 
Q 928 2378 1081 2264 
Q 1234 2150 1697 2047 
L 1894 2003 
Q 2506 1872 2764 1633 
Q 3022 1394 3022 966 
Q 3022 478 2636 193 
Q 2250 -91 1575 -91 
Q 1294 -91 989 -36 
Q 684 19 347 128 
L 347 722 
Q 666 556 975 473 
Q 1284 391 1588 391 
Q 1994 391 2212 530 
Q 2431 669 2431 922 
Q 2431 1156 2273 1281 
Q 2116 1406 1581 1522 
L 1381 1569 
Q 847 1681 609 1914 
Q 372 2147 372 2553 
Q 372 3047 722 3315 
Q 1072 3584 1716 3584 
Q 2034 3584 2315 3537 
Q 2597 3491 2834 3397 
z
" transform="scale(0.015625)"/>
      </defs>
      <use xlink:href="#DejaVuSans-4c"/>
      <use xlink:href="#DejaVuSans-6f" x="53.962891"/>
      <use xlink:href="#DejaVuSans-73" x="115.144531"/>
      <use xlink:href="#DejaVuSans-73" x="167.244141"/>
     </g>
    </g>
   </g>
   <g id="line2d_12">
    <path d="M 77.799545 162.104817 
L 82.488343 210.41704 
L 87.17714 222.319235 
L 91.865937 228.832131 
L 96.554734 243.806018 
L 101.243531 243.680221 
L 105.932328 251.148698 
L 110.621125 248.134898 
L 115.309922 269.977604 
L 119.998719 258.114141 
L 124.687516 264.379922 
L 129.376313 281.064687 
L 134.06511 290.610509 
L 138.753907 298.447195 
L 143.442704 302.344955 
L 148.131501 315.186534 
L 152.820298 324.301778 
L 157.509096 336.500722 
L 162.197893 342.087097 
L 166.88669 344.774444 
L 171.575487 347.703228 
L 176.264284 351.731837 
L 180.953081 353.567528 
L 185.641878 350.663002 
L 190.330675 357.277224 
L 195.019472 361.076139 
L 199.708269 361.649399 
L 204.397066 360.608148 
L 209.085863 363.149823 
L 213.77466 362.538121 
L 218.463457 362.7419 
L 223.152254 364.212669 
L 227.841051 364.871573 
L 232.529848 365.50046 
L 237.218646 366.868516 
L 241.907443 365.212695 
L 246.59624 365.836111 
L 251.285037 364.961456 
L 255.973834 366.675334 
L 260.662631 367.056747 
L 265.351428 366.607063 
L 270.040225 365.949224 
L 274.729022 365.874018 
L 279.417819 366.355527 
L 284.106616 367.612543 
L 288.795413 368.286919 
L 293.48421 364.93977 
L 298.173007 367.826292 
L 302.861804 367.955972 
L 307.550601 366.32931 
L 312.239399 367.552662 
L 316.928196 368.368202 
L 321.616993 366.859811 
L 326.30579 366.457775 
L 330.994587 368.340382 
L 335.683384 368.127825 
L 340.372181 366.798187 
L 345.060978 366.0511 
L 349.749775 367.246389 
L 354.438572 368.156884 
L 359.127369 368.572725 
L 363.816166 367.636224 
L 368.504963 366.149736 
L 373.19376 368.644882 
L 377.882557 367.591274 
L 382.571354 368.576105 
L 387.260152 365.482032 
L 391.948949 368.035977 
L 396.637746 368.687651 
L 401.326543 368.660798 
L 406.01534 368.31613 
L 410.704137 367.465104 
L 415.392934 367.911044 
L 420.081731 367.260881 
L 424.770528 368.347615 
L 429.459325 367.081822 
L 434.148122 367.399827 
L 438.836919 367.202704 
L 443.525716 368.681669 
L 448.214513 368.486186 
L 452.90331 366.992236 
L 457.592107 368.750423 
L 462.280904 368.043065 
L 466.969702 368.324385 
L 471.658499 368.32293 
L 476.347296 368.341167 
L 481.036093 368.276477 
L 485.72489 368.778436 
L 490.413687 366.403341 
L 495.102484 368.11945 
L 499.791281 368.180767 
L 504.480078 368.081793 
L 509.168875 368.06362 
L 513.857672 368.094104 
L 518.546469 368.523253 
L 523.235266 368.294435 
L 527.924063 367.690775 
L 532.61286 368.747678 
L 537.301657 368.755505 
L 541.990455 368.644806 
" clip-path="url(#p75812d895d)" style="fill: none; stroke: #ff0000; stroke-width: 1.5; stroke-linecap: square"/>
   </g>
   <g id="line2d_13">
    <path d="M 77.799545 157.6775 
L 82.488343 213.116096 
L 87.17714 214.090244 
L 91.865937 227.316951 
L 96.554734 222.550295 
L 101.243531 249.758849 
L 105.932328 251.980299 
L 110.621125 254.79392 
L 115.309922 268.84158 
L 119.998719 272.812416 
L 124.687516 277.154698 
L 129.376313 270.691122 
L 134.06511 295.256103 
L 138.753907 297.731815 
L 143.442704 306.709795 
L 148.131501 323.032706 
L 152.820298 331.645366 
L 157.509096 336.565397 
L 162.197893 344.957912 
L 166.88669 344.434858 
L 171.575487 349.738753 
L 176.264284 352.868459 
L 180.953081 357.614363 
L 185.641878 354.78734 
L 190.330675 361.030355 
L 195.019472 361.783699 
L 199.708269 361.670952 
L 204.397066 362.461384 
L 209.085863 365.33665 
L 213.77466 364.936023 
L 218.463457 363.738248 
L 223.152254 364.561548 
L 227.841051 366.012632 
L 232.529848 366.53929 
L 237.218646 365.5506 
L 241.907443 366.308757 
L 246.59624 367.087472 
L 251.285037 366.151545 
L 255.973834 365.663273 
L 260.662631 367.71843 
L 265.351428 367.796494 
L 270.040225 367.41581 
L 274.729022 367.947917 
L 279.417819 367.443632 
L 284.106616 367.408633 
L 288.795413 367.648998 
L 293.48421 367.148426 
L 298.173007 366.626208 
L 302.861804 367.444703 
L 307.550601 366.802406 
L 312.239399 366.347603 
L 316.928196 367.84032 
L 321.616993 367.590949 
L 326.30579 367.813631 
L 330.994587 368.379528 
L 335.683384 368.327615 
L 340.372181 367.989308 
L 345.060978 367.840153 
L 349.749775 368.242867 
L 354.438572 366.887012 
L 359.127369 367.777843 
L 363.816166 368.359742 
L 368.504963 367.845486 
L 373.19376 368.704965 
L 377.882557 368.491951 
L 382.571354 368.500872 
L 387.260152 368.559049 
L 391.948949 366.969569 
L 396.637746 368.490828 
L 401.326543 368.071285 
L 406.01534 367.490156 
L 410.704137 368.281828 
L 415.392934 367.541972 
L 420.081731 368.501372 
L 424.770528 368.383799 
L 429.459325 368.734847 
L 434.148122 367.701062 
L 438.836919 367.115689 
L 443.525716 368.61111 
L 448.214513 367.491811 
L 452.90331 366.675604 
L 457.592107 368.352281 
L 462.280904 368.661749 
L 466.969702 368.363043 
L 471.658499 366.992967 
L 476.347296 367.898282 
L 481.036093 368.763397 
L 485.72489 368.267141 
L 490.413687 366.565182 
L 495.102484 368.740683 
L 499.791281 368.68295 
L 504.480078 367.11218 
L 509.168875 368.745726 
L 513.857672 367.973574 
L 518.546469 368.770043 
L 523.235266 368.474851 
L 527.924063 368.666024 
L 532.61286 368.763837 
L 537.301657 368.809091 
L 541.990455 368.784986 
" clip-path="url(#p75812d895d)" style="fill: none; stroke: #ff0000; stroke-width: 1.5; stroke-linecap: square"/>
   </g>
   <g id="line2d_14">
    <path d="M 77.799545 162.461816 
L 82.488343 214.841587 
L 87.17714 225.033749 
L 91.865937 233.117403 
L 96.554734 250.102061 
L 101.243531 249.075349 
L 105.932328 246.328447 
L 110.621125 251.318681 
L 115.309922 269.292821 
L 119.998719 278.22111 
L 124.687516 281.48206 
L 129.376313 281.679658 
L 134.06511 299.650811 
L 138.753907 314.978925 
L 143.442704 312.726276 
L 148.131501 321.319118 
L 152.820298 331.226245 
L 157.509096 340.960955 
L 162.197893 343.963975 
L 166.88669 348.2356 
L 171.575487 354.712304 
L 176.264284 355.101826 
L 180.953081 353.94745 
L 185.641878 358.142375 
L 190.330675 359.037613 
L 195.019472 362.376231 
L 199.708269 360.492648 
L 204.397066 363.380615 
L 209.085863 363.07097 
L 213.77466 363.408909 
L 218.463457 364.643503 
L 223.152254 365.632453 
L 227.841051 365.007265 
L 232.529848 365.465823 
L 237.218646 366.16668 
L 241.907443 366.721878 
L 246.59624 366.17888 
L 251.285037 366.58806 
L 255.973834 367.19453 
L 260.662631 366.169487 
L 265.351428 367.898195 
L 270.040225 366.048866 
L 274.729022 367.454865 
L 279.417819 366.355098 
L 284.106616 366.333946 
L 288.795413 366.704774 
L 293.48421 367.370352 
L 298.173007 367.163077 
L 302.861804 366.80285 
L 307.550601 366.827439 
L 312.239399 368.000476 
L 316.928196 367.471484 
L 321.616993 367.561983 
L 326.30579 367.12469 
L 330.994587 367.76663 
L 335.683384 367.880398 
L 340.372181 367.954152 
L 345.060978 367.594267 
L 349.749775 367.584599 
L 354.438572 368.234167 
L 359.127369 367.464326 
L 363.816166 368.240897 
L 368.504963 368.345816 
L 373.19376 367.852716 
L 377.882557 367.958225 
L 382.571354 368.640641 
L 387.260152 366.408006 
L 391.948949 367.660674 
L 396.637746 368.687815 
L 401.326543 368.556898 
L 406.01534 368.226663 
L 410.704137 368.356586 
L 415.392934 367.861278 
L 420.081731 368.729249 
L 424.770528 368.063498 
L 429.459325 368.324285 
L 434.148122 368.143915 
L 438.836919 368.019167 
L 443.525716 368.734422 
L 448.214513 367.341359 
L 452.90331 368.765734 
L 457.592107 368.691656 
L 462.280904 368.346816 
L 466.969702 368.727084 
L 471.658499 367.539008 
L 476.347296 367.53685 
L 481.036093 368.613213 
L 485.72489 368.56947 
L 490.413687 368.634621 
L 495.102484 368.512249 
L 499.791281 368.513549 
L 504.480078 368.609815 
L 509.168875 368.63185 
L 513.857672 368.68892 
L 518.546469 368.454911 
L 523.235266 368.132247 
L 527.924063 368.603627 
L 532.61286 368.479637 
L 537.301657 368.243183 
L 541.990455 368.282972 
" clip-path="url(#p75812d895d)" style="fill: none; stroke: #ff0000; stroke-width: 1.5; stroke-linecap: square"/>
   </g>
   <g id="line2d_15">
    <path d="M 77.799545 164.321096 
L 82.488343 221.863831 
L 87.17714 222.86676 
L 91.865937 243.319032 
L 96.554734 243.794004 
L 101.243531 242.620186 
L 105.932328 250.683867 
L 110.621125 257.067384 
L 115.309922 265.612003 
L 119.998719 268.154116 
L 124.687516 282.569367 
L 129.376313 289.718981 
L 134.06511 302.701198 
L 138.753907 307.68125 
L 143.442704 314.821826 
L 148.131501 321.120223 
L 152.820298 327.782558 
L 157.509096 335.801788 
L 162.197893 337.080126 
L 166.88669 341.895664 
L 171.575487 349.160606 
L 176.264284 354.643914 
L 180.953081 354.821026 
L 185.641878 358.106854 
L 190.330675 356.862525 
L 195.019472 361.458213 
L 199.708269 360.936385 
L 204.397066 361.243134 
L 209.085863 363.915289 
L 213.77466 364.123456 
L 218.463457 364.885713 
L 223.152254 365.300788 
L 227.841051 363.964774 
L 232.529848 365.685764 
L 237.218646 364.144209 
L 241.907443 365.556206 
L 246.59624 365.399754 
L 251.285037 367.237995 
L 255.973834 366.509403 
L 260.662631 366.142449 
L 265.351428 367.827522 
L 270.040225 367.735481 
L 274.729022 366.651047 
L 279.417819 368.070147 
L 284.106616 367.873553 
L 288.795413 367.755292 
L 293.48421 366.253662 
L 298.173007 366.596858 
L 302.861804 367.291095 
L 307.550601 363.66991 
L 312.239399 367.773748 
L 316.928196 367.01352 
L 321.616993 368.443674 
L 326.30579 368.589554 
L 330.994587 368.279544 
L 335.683384 368.435641 
L 340.372181 368.392029 
L 345.060978 367.756439 
L 349.749775 367.582388 
L 354.438572 367.692635 
L 359.127369 368.599048 
L 363.816166 367.275352 
L 368.504963 367.556204 
L 373.19376 368.075713 
L 377.882557 367.315922 
L 382.571354 368.739734 
L 387.260152 368.661624 
L 391.948949 368.584911 
L 396.637746 366.264124 
L 401.326543 368.629111 
L 406.01534 368.333451 
L 410.704137 367.763172 
L 415.392934 368.173593 
L 420.081731 368.571589 
L 424.770528 368.719499 
L 429.459325 368.71002 
L 434.148122 367.600097 
L 438.836919 366.91576 
L 443.525716 368.479898 
L 448.214513 367.898259 
L 452.90331 368.760609 
L 457.592107 368.668523 
L 462.280904 368.321207 
L 466.969702 368.653384 
L 471.658499 368.624913 
L 476.347296 368.02547 
L 481.036093 366.866661 
L 485.72489 368.513042 
L 490.413687 368.420878 
L 495.102484 367.927142 
L 499.791281 368.572121 
L 504.480078 367.675124 
L 509.168875 363.631793 
L 513.857672 368.447551 
L 518.546469 367.897653 
L 523.235266 368.48487 
L 527.924063 367.947496 
L 532.61286 367.649914 
L 537.301657 366.570879 
L 541.990455 367.915341 
" clip-path="url(#p75812d895d)" style="fill: none; stroke: #ff0000; stroke-width: 1.5; stroke-linecap: square"/>
   </g>
   <g id="line2d_16">
    <path d="M 77.799545 162.00318 
L 82.488343 218.838651 
L 87.17714 232.30088 
L 91.865937 233.295743 
L 96.554734 233.174376 
L 101.243531 247.482826 
L 105.932328 245.805018 
L 110.621125 249.685587 
L 115.309922 260.053789 
L 119.998719 270.394922 
L 124.687516 274.208189 
L 129.376313 291.695529 
L 134.06511 281.564831 
L 138.753907 308.277053 
L 143.442704 315.306143 
L 148.131501 324.618413 
L 152.820298 332.218641 
L 157.509096 341.16754 
L 162.197893 349.81988 
L 166.88669 350.736231 
L 171.575487 352.2693 
L 176.264284 359.838307 
L 180.953081 358.272273 
L 185.641878 358.186766 
L 190.330675 362.89517 
L 195.019472 362.300301 
L 199.708269 364.698507 
L 204.397066 364.021249 
L 209.085863 364.256704 
L 213.77466 366.011535 
L 218.463457 365.8641 
L 223.152254 364.591149 
L 227.841051 367.048273 
L 232.529848 365.168762 
L 237.218646 366.650235 
L 241.907443 366.193895 
L 246.59624 367.34352 
L 251.285037 366.621499 
L 255.973834 367.024388 
L 260.662631 366.35013 
L 265.351428 366.813608 
L 270.040225 367.253543 
L 274.729022 367.687816 
L 279.417819 367.939773 
L 284.106616 368.331249 
L 288.795413 368.008071 
L 293.48421 368.381148 
L 298.173007 368.160301 
L 302.861804 366.17929 
L 307.550601 366.574732 
L 312.239399 367.527644 
L 316.928196 368.055049 
L 321.616993 368.468669 
L 326.30579 367.286908 
L 330.994587 367.227082 
L 335.683384 368.568311 
L 340.372181 367.676565 
L 345.060978 368.408978 
L 349.749775 367.689618 
L 354.438572 367.958229 
L 359.127369 368.489752 
L 363.816166 368.334694 
L 368.504963 366.932056 
L 373.19376 368.4341 
L 377.882557 368.340877 
L 382.571354 368.591016 
L 387.260152 368.090292 
L 391.948949 367.692861 
L 396.637746 367.573977 
L 401.326543 368.174382 
L 406.01534 366.787512 
L 410.704137 368.71016 
L 415.392934 368.701515 
L 420.081731 368.405498 
L 424.770528 368.222832 
L 429.459325 368.645773 
L 434.148122 368.602635 
L 438.836919 368.539995 
L 443.525716 368.778696 
L 448.214513 368.307522 
L 452.90331 368.143945 
L 457.592107 368.712119 
L 462.280904 367.906748 
L 466.969702 368.757481 
L 471.658499 368.766504 
L 476.347296 368.796888 
L 481.036093 367.896801 
L 485.72489 368.522626 
L 490.413687 368.408398 
L 495.102484 368.566414 
L 499.791281 368.128157 
L 504.480078 367.248408 
L 509.168875 367.559789 
L 513.857672 368.420497 
L 518.546469 368.291257 
L 523.235266 368.354777 
L 527.924063 368.40937 
L 532.61286 368.799414 
L 537.301657 368.776679 
L 541.990455 368.718663 
" clip-path="url(#p75812d895d)" style="fill: none; stroke: #ff0000; stroke-width: 1.5; stroke-linecap: square"/>
   </g>
   <g id="line2d_17">
    <path d="M 77.799545 84.974191 
L 82.488343 150.081749 
L 87.17714 172.848582 
L 91.865937 180.472945 
L 96.554734 199.817838 
L 101.243531 207.768954 
L 105.932328 200.133859 
L 110.621125 221.13085 
L 115.309922 228.736411 
L 119.998719 230.799181 
L 124.687516 252.635116 
L 129.376313 242.12797 
L 134.06511 267.349551 
L 138.753907 260.95513 
L 143.442704 276.557198 
L 148.131501 293.490038 
L 152.820298 277.558662 
L 157.509096 301.772498 
L 162.197893 302.616226 
L 166.88669 294.601236 
L 171.575487 323.3948 
L 176.264284 319.174892 
L 180.953081 333.636832 
L 185.641878 332.446624 
L 190.330675 342.931952 
L 195.019472 347.240058 
L 199.708269 347.078461 
L 204.397066 356.10583 
L 209.085863 348.125801 
L 213.77466 356.721534 
L 218.463457 356.750969 
L 223.152254 360.846523 
L 227.841051 358.006242 
L 232.529848 357.130022 
L 237.218646 360.575861 
L 241.907443 362.258483 
L 246.59624 361.657711 
L 251.285037 363.415302 
L 255.973834 364.069973 
L 260.662631 363.810755 
L 265.351428 359.46653 
L 270.040225 366.367182 
L 274.729022 358.68421 
L 279.417819 364.93736 
L 284.106616 364.173629 
L 288.795413 364.713005 
L 293.48421 362.157126 
L 298.173007 362.323495 
L 302.861804 365.161418 
L 307.550601 362.071724 
L 312.239399 363.720901 
L 316.928196 365.641798 
L 321.616993 367.00874 
L 326.30579 367.625024 
L 330.994587 364.669033 
L 335.683384 363.931343 
L 340.372181 364.299654 
L 345.060978 365.637906 
L 349.749775 368.269768 
L 354.438572 365.226075 
L 359.127369 366.330319 
L 363.816166 367.491354 
L 368.504963 367.168975 
L 373.19376 366.75712 
L 377.882557 368.510202 
L 382.571354 367.885626 
L 387.260152 368.432426 
L 391.948949 365.227843 
L 396.637746 364.796065 
L 401.326543 366.691522 
L 406.01534 367.495673 
L 410.704137 367.57432 
L 415.392934 368.381898 
L 420.081731 368.73716 
L 424.770528 367.026868 
L 429.459325 365.400799 
L 434.148122 368.424562 
L 438.836919 368.451851 
L 443.525716 367.56513 
L 448.214513 365.875404 
L 452.90331 367.338034 
L 457.592107 368.206573 
L 462.280904 368.447115 
L 466.969702 368.241179 
L 471.658499 366.626853 
L 476.347296 368.135968 
L 481.036093 368.042866 
L 485.72489 367.857091 
L 490.413687 367.561107 
L 495.102484 364.272518 
L 499.791281 367.231378 
L 504.480078 368.695929 
L 509.168875 368.406269 
L 513.857672 368.704373 
L 518.546469 368.761988 
L 523.235266 368.252335 
L 527.924063 367.837517 
L 532.61286 368.527379 
L 537.301657 362.309038 
L 541.990455 368.258879 
" clip-path="url(#p75812d895d)" style="fill: none; stroke: #008000; stroke-width: 1.5; stroke-linecap: square"/>
   </g>
   <g id="line2d_18">
    <path d="M 77.799545 72.773303 
L 82.488343 150.65602 
L 87.17714 163.662357 
L 91.865937 181.278651 
L 96.554734 188.018894 
L 101.243531 200.359089 
L 105.932328 214.100361 
L 110.621125 221.409319 
L 115.309922 228.012933 
L 119.998719 228.015269 
L 124.687516 246.968413 
L 129.376313 241.309219 
L 134.06511 254.771286 
L 138.753907 256.483353 
L 143.442704 276.830007 
L 148.131501 279.484745 
L 152.820298 291.299149 
L 157.509096 296.047186 
L 162.197893 302.71049 
L 166.88669 312.47884 
L 171.575487 309.92002 
L 176.264284 319.898248 
L 180.953081 321.018897 
L 185.641878 340.068682 
L 190.330675 336.220618 
L 195.019472 335.803148 
L 199.708269 340.144616 
L 204.397066 350.33241 
L 209.085863 352.862633 
L 213.77466 351.713211 
L 218.463457 352.447245 
L 223.152254 355.760305 
L 227.841051 358.550398 
L 232.529848 358.524748 
L 237.218646 357.665488 
L 241.907443 360.669671 
L 246.59624 362.496545 
L 251.285037 360.687106 
L 255.973834 361.132887 
L 260.662631 364.825091 
L 265.351428 362.895114 
L 270.040225 365.092215 
L 274.729022 362.80603 
L 279.417819 359.27925 
L 284.106616 360.710854 
L 288.795413 365.587884 
L 293.48421 367.219953 
L 298.173007 367.806324 
L 302.861804 365.629926 
L 307.550601 367.601103 
L 312.239399 366.93659 
L 316.928196 362.934849 
L 321.616993 365.204732 
L 326.30579 367.300782 
L 330.994587 364.595969 
L 335.683384 364.026756 
L 340.372181 363.129625 
L 345.060978 365.517184 
L 349.749775 364.932012 
L 354.438572 363.067009 
L 359.127369 366.147312 
L 363.816166 368.055309 
L 368.504963 366.808902 
L 373.19376 367.210969 
L 377.882557 365.843564 
L 382.571354 366.999431 
L 387.260152 365.359869 
L 391.948949 367.46044 
L 396.637746 367.514456 
L 401.326543 367.815003 
L 406.01534 366.578729 
L 410.704137 366.151764 
L 415.392934 367.028152 
L 420.081731 368.689717 
L 424.770528 367.905577 
L 429.459325 366.732886 
L 434.148122 368.68042 
L 438.836919 368.63234 
L 443.525716 367.867749 
L 448.214513 368.104413 
L 452.90331 367.386905 
L 457.592107 364.726621 
L 462.280904 368.169054 
L 466.969702 367.062898 
L 471.658499 368.045316 
L 476.347296 368.368599 
L 481.036093 361.828701 
L 485.72489 364.325758 
L 490.413687 367.609824 
L 495.102484 368.695064 
L 499.791281 367.176152 
L 504.480078 368.711847 
L 509.168875 368.025977 
L 513.857672 367.966925 
L 518.546469 368.508674 
L 523.235266 363.824956 
L 527.924063 368.792897 
L 532.61286 368.04266 
L 537.301657 368.290919 
L 541.990455 368.737329 
" clip-path="url(#p75812d895d)" style="fill: none; stroke: #008000; stroke-width: 1.5; stroke-linecap: square"/>
   </g>
   <g id="line2d_19">
    <path d="M 77.799545 90.676425 
L 82.488343 162.422688 
L 87.17714 182.641846 
L 91.865937 189.001872 
L 96.554734 205.255414 
L 101.243531 203.645136 
L 105.932328 213.468999 
L 110.621125 218.378665 
L 115.309922 228.818506 
L 119.998719 241.749627 
L 124.687516 237.908709 
L 129.376313 257.48114 
L 134.06511 261.879698 
L 138.753907 275.624084 
L 143.442704 272.489442 
L 148.131501 292.053359 
L 152.820298 287.780469 
L 157.509096 295.981726 
L 162.197893 311.569765 
L 166.88669 311.973094 
L 171.575487 322.324605 
L 176.264284 336.171195 
L 180.953081 337.563448 
L 185.641878 338.740278 
L 190.330675 344.357335 
L 195.019472 344.235953 
L 199.708269 344.259717 
L 204.397066 352.618177 
L 209.085863 350.096227 
L 213.77466 357.647114 
L 218.463457 359.383233 
L 223.152254 359.962244 
L 227.841051 360.446304 
L 232.529848 360.106661 
L 237.218646 362.558732 
L 241.907443 361.848015 
L 246.59624 355.80855 
L 251.285037 356.998313 
L 255.973834 361.459032 
L 260.662631 361.518119 
L 265.351428 361.388556 
L 270.040225 357.789859 
L 274.729022 366.536882 
L 279.417819 366.527823 
L 284.106616 367.503207 
L 288.795413 356.188348 
L 293.48421 366.985234 
L 298.173007 367.435577 
L 302.861804 363.823836 
L 307.550601 364.45984 
L 312.239399 362.450546 
L 316.928196 367.522161 
L 321.616993 366.936985 
L 326.30579 368.246914 
L 330.994587 362.346068 
L 335.683384 366.397408 
L 340.372181 368.104169 
L 345.060978 363.847586 
L 349.749775 367.83573 
L 354.438572 367.51101 
L 359.127369 368.42926 
L 363.816166 367.695751 
L 368.504963 367.018177 
L 373.19376 366.522255 
L 377.882557 364.931118 
L 382.571354 365.16429 
L 387.260152 367.796621 
L 391.948949 366.957831 
L 396.637746 367.061561 
L 401.326543 367.785082 
L 406.01534 367.489982 
L 410.704137 368.701489 
L 415.392934 368.233618 
L 420.081731 366.852739 
L 424.770528 368.488828 
L 429.459325 368.767339 
L 434.148122 368.442795 
L 438.836919 368.595583 
L 443.525716 368.516155 
L 448.214513 367.987944 
L 452.90331 368.750764 
L 457.592107 367.451851 
L 462.280904 366.868164 
L 466.969702 368.191582 
L 471.658499 367.567894 
L 476.347296 367.39685 
L 481.036093 368.219817 
L 485.72489 368.791551 
L 490.413687 368.415725 
L 495.102484 368.779223 
L 499.791281 367.27858 
L 504.480078 368.42028 
L 509.168875 368.798574 
L 513.857672 368.791638 
L 518.546469 367.951712 
L 523.235266 367.974714 
L 527.924063 365.907292 
L 532.61286 367.75906 
L 537.301657 368.482283 
L 541.990455 368.664842 
" clip-path="url(#p75812d895d)" style="fill: none; stroke: #008000; stroke-width: 1.5; stroke-linecap: square"/>
   </g>
   <g id="line2d_20">
    <path d="M 77.799545 44.990909 
L 82.488343 147.223019 
L 87.17714 163.395033 
L 91.865937 176.034785 
L 96.554734 191.116805 
L 101.243531 200.021091 
L 105.932328 210.419901 
L 110.621125 221.262154 
L 115.309922 236.778681 
L 119.998719 233.900358 
L 124.687516 236.055616 
L 129.376313 245.48211 
L 134.06511 262.134606 
L 138.753907 286.952562 
L 143.442704 283.265031 
L 148.131501 290.281047 
L 152.820298 293.249056 
L 157.509096 299.077336 
L 162.197893 311.557732 
L 166.88669 328.661079 
L 171.575487 318.78 
L 176.264284 325.523637 
L 180.953081 319.779056 
L 185.641878 339.012537 
L 190.330675 340.577554 
L 195.019472 341.857233 
L 199.708269 348.275341 
L 204.397066 344.253688 
L 209.085863 348.80771 
L 213.77466 353.692415 
L 218.463457 350.800055 
L 223.152254 356.584852 
L 227.841051 359.992175 
L 232.529848 356.578138 
L 237.218646 358.802782 
L 241.907443 362.498312 
L 246.59624 360.224555 
L 251.285037 364.459838 
L 255.973834 359.086936 
L 260.662631 357.169492 
L 265.351428 361.321541 
L 270.040225 365.34167 
L 274.729022 365.714455 
L 279.417819 365.792929 
L 284.106616 362.872839 
L 288.795413 364.410481 
L 293.48421 367.174741 
L 298.173007 363.536261 
L 302.861804 364.798514 
L 307.550601 367.900712 
L 312.239399 361.176625 
L 316.928196 366.848801 
L 321.616993 364.243575 
L 326.30579 366.181084 
L 330.994587 365.423633 
L 335.683384 365.922942 
L 340.372181 366.749473 
L 345.060978 368.238967 
L 349.749775 365.903433 
L 354.438572 367.55555 
L 359.127369 365.932241 
L 363.816166 368.2816 
L 368.504963 365.256757 
L 373.19376 365.089844 
L 377.882557 367.729106 
L 382.571354 362.611385 
L 387.260152 365.955871 
L 391.948949 367.405377 
L 396.637746 364.79255 
L 401.326543 367.900744 
L 406.01534 368.50933 
L 410.704137 366.682804 
L 415.392934 368.003746 
L 420.081731 368.103472 
L 424.770528 368.020149 
L 429.459325 367.990919 
L 434.148122 368.580352 
L 438.836919 366.444114 
L 443.525716 363.766231 
L 448.214513 367.492972 
L 452.90331 366.35163 
L 457.592107 368.491622 
L 462.280904 367.953471 
L 466.969702 365.074933 
L 471.658499 368.652485 
L 476.347296 368.753812 
L 481.036093 367.257694 
L 485.72489 368.786529 
L 490.413687 367.419656 
L 495.102484 368.26019 
L 499.791281 368.504376 
L 504.480078 368.586891 
L 509.168875 368.287601 
L 513.857672 368.407831 
L 518.546469 365.379016 
L 523.235266 368.163154 
L 527.924063 367.616778 
L 532.61286 367.434675 
L 537.301657 368.216381 
L 541.990455 368.485348 
" clip-path="url(#p75812d895d)" style="fill: none; stroke: #008000; stroke-width: 1.5; stroke-linecap: square"/>
   </g>
   <g id="line2d_21">
    <path d="M 77.799545 80.241432 
L 82.488343 158.639213 
L 87.17714 175.192395 
L 91.865937 190.333308 
L 96.554734 194.843723 
L 101.243531 208.914111 
L 105.932328 212.96285 
L 110.621125 221.761763 
L 115.309922 229.574053 
L 119.998719 234.520442 
L 124.687516 235.794867 
L 129.376313 261.402051 
L 134.06511 255.513564 
L 138.753907 266.118412 
L 143.442704 281.722872 
L 148.131501 286.570411 
L 152.820298 294.385913 
L 157.509096 292.303053 
L 162.197893 303.523949 
L 166.88669 314.548211 
L 171.575487 326.161261 
L 176.264284 331.891595 
L 180.953081 332.6112 
L 185.641878 330.962269 
L 190.330675 342.545854 
L 195.019472 343.265479 
L 199.708269 352.710004 
L 204.397066 353.666548 
L 209.085863 352.416732 
L 213.77466 352.389035 
L 218.463457 356.388096 
L 223.152254 360.23719 
L 227.841051 361.045126 
L 232.529848 359.156733 
L 237.218646 359.006536 
L 241.907443 360.374479 
L 246.59624 362.03582 
L 251.285037 362.513129 
L 255.973834 363.953737 
L 260.662631 366.182485 
L 265.351428 360.714618 
L 270.040225 365.855522 
L 274.729022 365.075175 
L 279.417819 366.904871 
L 284.106616 366.892224 
L 288.795413 366.19148 
L 293.48421 364.748023 
L 298.173007 368.04882 
L 302.861804 365.774168 
L 307.550601 363.673241 
L 312.239399 359.897055 
L 316.928196 366.125625 
L 321.616993 365.736125 
L 326.30579 361.76839 
L 330.994587 361.409073 
L 335.683384 368.255705 
L 340.372181 367.799279 
L 345.060978 367.777643 
L 349.749775 360.965395 
L 354.438572 367.011362 
L 359.127369 367.647324 
L 363.816166 367.047459 
L 368.504963 366.320676 
L 373.19376 366.579957 
L 377.882557 361.80009 
L 382.571354 366.061182 
L 387.260152 367.231182 
L 391.948949 365.083882 
L 396.637746 368.183559 
L 401.326543 366.497149 
L 406.01534 365.266505 
L 410.704137 368.253847 
L 415.392934 368.206506 
L 420.081731 368.573764 
L 424.770528 368.38875 
L 429.459325 368.741672 
L 434.148122 368.024392 
L 438.836919 367.946884 
L 443.525716 367.533808 
L 448.214513 367.40078 
L 452.90331 368.594241 
L 457.592107 368.250395 
L 462.280904 368.590698 
L 466.969702 367.972349 
L 471.658499 368.584614 
L 476.347296 368.252802 
L 481.036093 366.447654 
L 485.72489 368.680477 
L 490.413687 367.567807 
L 495.102484 367.767262 
L 499.791281 366.394835 
L 504.480078 365.821061 
L 509.168875 367.504798 
L 513.857672 364.96475 
L 518.546469 365.433438 
L 523.235266 368.610474 
L 527.924063 367.608051 
L 532.61286 368.369496 
L 537.301657 366.04132 
L 541.990455 368.645793 
" clip-path="url(#p75812d895d)" style="fill: none; stroke: #008000; stroke-width: 1.5; stroke-linecap: square"/>
   </g>
   <g id="line2d_22">
    <path d="M 77.799545 69.600064 
L 82.488343 152.699439 
L 87.17714 167.229584 
L 91.865937 190.675789 
L 96.554734 200.032248 
L 101.243531 190.454527 
L 105.932328 203.527511 
L 110.621125 216.427922 
L 115.309922 227.411296 
L 119.998719 247.767065 
L 124.687516 249.32129 
L 129.376313 254.819136 
L 134.06511 268.68299 
L 138.753907 265.915956 
L 143.442704 290.340179 
L 148.131501 293.322463 
L 152.820298 298.837022 
L 157.509096 299.465863 
L 162.197893 302.96396 
L 166.88669 313.098485 
L 171.575487 320.412954 
L 176.264284 323.800022 
L 180.953081 329.284168 
L 185.641878 332.930884 
L 190.330675 339.145131 
L 195.019472 343.734595 
L 199.708269 345.301965 
L 204.397066 350.912682 
L 209.085863 347.426325 
L 213.77466 354.353532 
L 218.463457 352.465455 
L 223.152254 353.517996 
L 227.841051 356.628268 
L 232.529848 357.080583 
L 237.218646 357.675359 
L 241.907443 357.394141 
L 246.59624 357.624854 
L 251.285037 361.5458 
L 255.973834 363.167518 
L 260.662631 363.70038 
L 265.351428 363.607254 
L 270.040225 361.936353 
L 274.729022 365.528256 
L 279.417819 365.330521 
L 284.106616 364.250768 
L 288.795413 364.225358 
L 293.48421 366.434513 
L 298.173007 365.003088 
L 302.861804 366.147318 
L 307.550601 367.184532 
L 312.239399 365.609276 
L 316.928196 366.176359 
L 321.616993 366.186892 
L 326.30579 364.002448 
L 330.994587 366.304979 
L 335.683384 366.105229 
L 340.372181 366.442712 
L 345.060978 367.484816 
L 349.749775 366.387532 
L 354.438572 367.152455 
L 359.127369 366.574457 
L 363.816166 367.037309 
L 368.504963 367.455586 
L 373.19376 368.209138 
L 377.882557 366.5945 
L 382.571354 367.715783 
L 387.260152 367.181485 
L 391.948949 367.119091 
L 396.637746 367.938614 
L 401.326543 368.210425 
L 406.01534 368.283588 
L 410.704137 367.293689 
L 415.392934 367.79731 
L 420.081731 367.961176 
L 424.770528 367.943383 
L 429.459325 368.03281 
L 434.148122 367.695204 
L 438.836919 368.521766 
L 443.525716 367.585915 
L 448.214513 367.826846 
L 452.90331 368.49763 
L 457.592107 368.133257 
L 462.280904 368.326585 
L 466.969702 368.225378 
L 471.658499 366.679526 
L 476.347296 367.143197 
L 481.036093 367.319586 
L 485.72489 368.079296 
L 490.413687 367.209586 
L 495.102484 368.726041 
L 499.791281 368.519111 
L 504.480078 367.759603 
L 509.168875 368.136825 
L 513.857672 368.754133 
L 518.546469 368.275039 
L 523.235266 368.683861 
L 527.924063 368.408656 
L 532.61286 368.244686 
L 537.301657 368.532288 
L 541.990455 368.369317 
" clip-path="url(#p75812d895d)" style="fill: none; stroke: #0000ff; stroke-width: 1.5; stroke-linecap: square"/>
   </g>
   <g id="line2d_23">
    <path d="M 77.799545 47.714358 
L 82.488343 149.435237 
L 87.17714 173.634724 
L 91.865937 165.514293 
L 96.554734 184.426466 
L 101.243531 191.591113 
L 105.932328 210.516405 
L 110.621125 222.258897 
L 115.309922 229.363369 
L 119.998719 234.802455 
L 124.687516 239.962894 
L 129.376313 261.595876 
L 134.06511 263.344823 
L 138.753907 285.52311 
L 143.442704 279.651734 
L 148.131501 264.852304 
L 152.820298 287.40798 
L 157.509096 287.999714 
L 162.197893 298.168046 
L 166.88669 311.074161 
L 171.575487 320.80824 
L 176.264284 325.228334 
L 180.953081 327.21054 
L 185.641878 334.466809 
L 190.330675 341.542677 
L 195.019472 342.189846 
L 199.708269 347.656165 
L 204.397066 346.968526 
L 209.085863 347.26305 
L 213.77466 351.298091 
L 218.463457 353.383933 
L 223.152254 357.709741 
L 227.841051 356.582597 
L 232.529848 359.630795 
L 237.218646 359.836509 
L 241.907443 357.743839 
L 246.59624 360.65989 
L 251.285037 362.43179 
L 255.973834 364.035428 
L 260.662631 362.364623 
L 265.351428 365.056867 
L 270.040225 363.053784 
L 274.729022 363.19936 
L 279.417819 364.64512 
L 284.106616 365.442948 
L 288.795413 366.581421 
L 293.48421 366.809922 
L 298.173007 365.357734 
L 302.861804 362.518021 
L 307.550601 366.58089 
L 312.239399 366.858217 
L 316.928196 366.762111 
L 321.616993 365.537218 
L 326.30579 365.117205 
L 330.994587 367.068824 
L 335.683384 365.009645 
L 340.372181 365.48783 
L 345.060978 366.52246 
L 349.749775 367.153404 
L 354.438572 366.288017 
L 359.127369 366.787604 
L 363.816166 366.86634 
L 368.504963 368.117019 
L 373.19376 366.619854 
L 377.882557 367.85669 
L 382.571354 367.913035 
L 387.260152 367.621664 
L 391.948949 368.528019 
L 396.637746 366.706768 
L 401.326543 366.155918 
L 406.01534 366.648145 
L 410.704137 367.500404 
L 415.392934 366.870727 
L 420.081731 368.450664 
L 424.770528 368.254492 
L 429.459325 367.22391 
L 434.148122 367.389761 
L 438.836919 368.149183 
L 443.525716 368.303574 
L 448.214513 368.50285 
L 452.90331 368.557857 
L 457.592107 368.049763 
L 462.280904 366.289802 
L 466.969702 367.796289 
L 471.658499 367.596866 
L 476.347296 368.035039 
L 481.036093 367.059605 
L 485.72489 368.649595 
L 490.413687 367.568763 
L 495.102484 368.243312 
L 499.791281 368.190823 
L 504.480078 367.439928 
L 509.168875 367.948934 
L 513.857672 366.375585 
L 518.546469 368.244801 
L 523.235266 367.875038 
L 527.924063 368.729799 
L 532.61286 368.698631 
L 537.301657 368.697543 
L 541.990455 367.779949 
" clip-path="url(#p75812d895d)" style="fill: none; stroke: #0000ff; stroke-width: 1.5; stroke-linecap: square"/>
   </g>
   <g id="line2d_24">
    <path d="M 77.799545 45.274366 
L 82.488343 152.025666 
L 87.17714 150.880842 
L 91.865937 170.475739 
L 96.554734 177.830179 
L 101.243531 183.258329 
L 105.932328 216.229009 
L 110.621125 213.883627 
L 115.309922 226.219277 
L 119.998719 222.393714 
L 124.687516 245.765408 
L 129.376313 256.094784 
L 134.06511 257.424899 
L 138.753907 266.949216 
L 143.442704 273.960558 
L 148.131501 287.072994 
L 152.820298 281.692471 
L 157.509096 294.490019 
L 162.197893 305.589102 
L 166.88669 293.564082 
L 171.575487 313.613982 
L 176.264284 320.549147 
L 180.953081 324.807415 
L 185.641878 327.362824 
L 190.330675 334.545379 
L 195.019472 338.278707 
L 199.708269 344.991462 
L 204.397066 348.231635 
L 209.085863 352.404588 
L 213.77466 351.483651 
L 218.463457 353.44065 
L 223.152254 355.556584 
L 227.841051 353.405992 
L 232.529848 358.135861 
L 237.218646 358.656086 
L 241.907443 362.227472 
L 246.59624 361.360667 
L 251.285037 361.543598 
L 255.973834 359.580855 
L 260.662631 361.729444 
L 265.351428 363.502653 
L 270.040225 363.889289 
L 274.729022 365.46443 
L 279.417819 365.021938 
L 284.106616 364.819942 
L 288.795413 365.183314 
L 293.48421 363.743302 
L 298.173007 366.366584 
L 302.861804 366.627253 
L 307.550601 367.054886 
L 312.239399 366.847503 
L 316.928196 366.224042 
L 321.616993 367.118149 
L 326.30579 366.532694 
L 330.994587 366.73075 
L 335.683384 367.302877 
L 340.372181 365.988324 
L 345.060978 366.599588 
L 349.749775 365.281241 
L 354.438572 368.245773 
L 359.127369 367.019219 
L 363.816166 367.515129 
L 368.504963 365.054653 
L 373.19376 367.270021 
L 377.882557 366.318021 
L 382.571354 367.704812 
L 387.260152 367.664668 
L 391.948949 368.015174 
L 396.637746 368.216727 
L 401.326543 367.294472 
L 406.01534 365.733514 
L 410.704137 368.353948 
L 415.392934 366.381936 
L 420.081731 368.212491 
L 424.770528 367.808535 
L 429.459325 365.837408 
L 434.148122 366.122281 
L 438.836919 367.17592 
L 443.525716 368.373698 
L 448.214513 368.63917 
L 452.90331 368.123119 
L 457.592107 368.067242 
L 462.280904 367.377694 
L 466.969702 368.501709 
L 471.658499 367.646561 
L 476.347296 367.955658 
L 481.036093 368.615888 
L 485.72489 368.163329 
L 490.413687 368.576166 
L 495.102484 367.813396 
L 499.791281 368.540501 
L 504.480078 367.356116 
L 509.168875 368.721248 
L 513.857672 368.572083 
L 518.546469 368.632963 
L 523.235266 368.658692 
L 527.924063 368.561949 
L 532.61286 367.593812 
L 537.301657 368.73385 
L 541.990455 368.166251 
" clip-path="url(#p75812d895d)" style="fill: none; stroke: #0000ff; stroke-width: 1.5; stroke-linecap: square"/>
   </g>
   <g id="line2d_25">
    <path d="M 77.799545 63.479807 
L 82.488343 153.799449 
L 87.17714 174.0532 
L 91.865937 183.907545 
L 96.554734 198.996382 
L 101.243531 194.279377 
L 105.932328 206.169821 
L 110.621125 227.831306 
L 115.309922 231.062942 
L 119.998719 236.623547 
L 124.687516 246.523584 
L 129.376313 264.071586 
L 134.06511 267.229227 
L 138.753907 263.059175 
L 143.442704 273.714481 
L 148.131501 272.800981 
L 152.820298 287.13508 
L 157.509096 301.07562 
L 162.197893 312.931208 
L 166.88669 317.462078 
L 171.575487 317.21322 
L 176.264284 328.516505 
L 180.953081 329.140446 
L 185.641878 336.617168 
L 190.330675 343.489575 
L 195.019472 342.498334 
L 199.708269 347.206518 
L 204.397066 346.154024 
L 209.085863 351.290463 
L 213.77466 351.834257 
L 218.463457 352.448024 
L 223.152254 356.50908 
L 227.841051 357.608817 
L 232.529848 357.706238 
L 237.218646 359.977238 
L 241.907443 362.396818 
L 246.59624 358.758246 
L 251.285037 362.159793 
L 255.973834 362.961981 
L 260.662631 362.285332 
L 265.351428 361.667894 
L 270.040225 364.567068 
L 274.729022 363.729379 
L 279.417819 365.171647 
L 284.106616 365.13346 
L 288.795413 364.34402 
L 293.48421 363.710983 
L 298.173007 366.379548 
L 302.861804 366.347246 
L 307.550601 365.189379 
L 312.239399 366.912323 
L 316.928196 367.109014 
L 321.616993 367.539228 
L 326.30579 366.410671 
L 330.994587 367.02895 
L 335.683384 367.986139 
L 340.372181 367.272452 
L 345.060978 367.122259 
L 349.749775 366.988892 
L 354.438572 366.519653 
L 359.127369 368.031794 
L 363.816166 366.733272 
L 368.504963 367.123057 
L 373.19376 366.425213 
L 377.882557 367.015484 
L 382.571354 366.60427 
L 387.260152 366.346376 
L 391.948949 367.544244 
L 396.637746 367.22822 
L 401.326543 367.437552 
L 406.01534 367.998714 
L 410.704137 367.821411 
L 415.392934 367.613403 
L 420.081731 368.427546 
L 424.770528 368.544681 
L 429.459325 368.13248 
L 434.148122 368.387511 
L 438.836919 366.608264 
L 443.525716 368.188654 
L 448.214513 367.250213 
L 452.90331 368.356363 
L 457.592107 367.85031 
L 462.280904 368.672226 
L 466.969702 365.463849 
L 471.658499 368.507199 
L 476.347296 368.037837 
L 481.036093 368.35508 
L 485.72489 368.461618 
L 490.413687 366.482898 
L 495.102484 368.020654 
L 499.791281 368.604203 
L 504.480078 368.379597 
L 509.168875 368.334833 
L 513.857672 367.622571 
L 518.546469 368.294372 
L 523.235266 368.710517 
L 527.924063 367.969443 
L 532.61286 368.661272 
L 537.301657 367.791094 
L 541.990455 368.257475 
" clip-path="url(#p75812d895d)" style="fill: none; stroke: #0000ff; stroke-width: 1.5; stroke-linecap: square"/>
   </g>
   <g id="line2d_26">
    <path d="M 77.799545 78.216224 
L 82.488343 159.753803 
L 87.17714 166.112077 
L 91.865937 183.553053 
L 96.554734 195.86806 
L 101.243531 196.253444 
L 105.932328 212.81372 
L 110.621125 212.127547 
L 115.309922 228.63713 
L 119.998719 239.421819 
L 124.687516 249.294418 
L 129.376313 256.047242 
L 134.06511 267.82822 
L 138.753907 274.972125 
L 143.442704 277.06562 
L 148.131501 286.279357 
L 152.820298 302.983511 
L 157.509096 300.445773 
L 162.197893 312.521204 
L 166.88669 317.541304 
L 171.575487 320.916696 
L 176.264284 325.490234 
L 180.953081 333.673773 
L 185.641878 339.794068 
L 190.330675 340.010595 
L 195.019472 346.98846 
L 199.708269 349.581176 
L 204.397066 345.413989 
L 209.085863 355.509522 
L 213.77466 353.479374 
L 218.463457 357.301551 
L 223.152254 358.886143 
L 227.841051 358.650532 
L 232.529848 359.683951 
L 237.218646 362.520718 
L 241.907443 362.081478 
L 246.59624 360.346242 
L 251.285037 363.13671 
L 255.973834 363.57013 
L 260.662631 364.545784 
L 265.351428 363.849576 
L 270.040225 363.867606 
L 274.729022 364.700655 
L 279.417819 365.83611 
L 284.106616 363.902143 
L 288.795413 366.343489 
L 293.48421 366.795474 
L 298.173007 365.636264 
L 302.861804 365.719447 
L 307.550601 364.308333 
L 312.239399 365.530225 
L 316.928196 366.421586 
L 321.616993 367.373162 
L 326.30579 367.725934 
L 330.994587 367.134847 
L 335.683384 366.166421 
L 340.372181 367.79413 
L 345.060978 367.381216 
L 349.749775 368.019024 
L 354.438572 367.727816 
L 359.127369 367.779495 
L 363.816166 367.470719 
L 368.504963 367.11768 
L 373.19376 367.744029 
L 377.882557 367.861593 
L 382.571354 368.133242 
L 387.260152 367.556423 
L 391.948949 366.241162 
L 396.637746 368.498765 
L 401.326543 367.078575 
L 406.01534 368.455226 
L 410.704137 367.677686 
L 415.392934 367.57067 
L 420.081731 368.136045 
L 424.770528 368.561527 
L 429.459325 368.608262 
L 434.148122 368.277731 
L 438.836919 368.333127 
L 443.525716 368.115278 
L 448.214513 368.509905 
L 452.90331 368.651202 
L 457.592107 367.639833 
L 462.280904 368.39306 
L 466.969702 368.026611 
L 471.658499 368.099308 
L 476.347296 368.182672 
L 481.036093 368.680034 
L 485.72489 367.110406 
L 490.413687 368.643624 
L 495.102484 368.768249 
L 499.791281 368.236198 
L 504.480078 367.921983 
L 509.168875 368.699805 
L 513.857672 368.304333 
L 518.546469 368.134646 
L 523.235266 368.746893 
L 527.924063 368.390297 
L 532.61286 368.177791 
L 537.301657 368.686109 
L 541.990455 368.401729 
" clip-path="url(#p75812d895d)" style="fill: none; stroke: #0000ff; stroke-width: 1.5; stroke-linecap: square"/>
   </g>
   <g id="patch_3">
    <path d="M 54.59 385 
L 54.59 28.8 
" style="fill: none; stroke: #000000; stroke-width: 0.8; stroke-linejoin: miter; stroke-linecap: square"/>
   </g>
   <g id="patch_4">
    <path d="M 565.2 385 
L 565.2 28.8 
" style="fill: none; stroke: #000000; stroke-width: 0.8; stroke-linejoin: miter; stroke-linecap: square"/>
   </g>
   <g id="patch_5">
    <path d="M 54.59 385 
L 565.2 385 
" style="fill: none; stroke: #000000; stroke-width: 0.8; stroke-linejoin: miter; stroke-linecap: square"/>
   </g>
   <g id="patch_6">
    <path d="M 54.59 28.8 
L 565.2 28.8 
" style="fill: none; stroke: #000000; stroke-width: 0.8; stroke-linejoin: miter; stroke-linecap: square"/>
   </g>
   <g id="text_14">
    <!-- Losses of Three Groups of Dataset -->
    <g transform="translate(172.36625 22.8)scale(0.16 -0.16)">
     <defs>
      <path id="DejaVuSans-20" transform="scale(0.015625)"/>
      <path id="DejaVuSans-66" d="M 2375 4863 
L 2375 4384 
L 1825 4384 
Q 1516 4384 1395 4259 
Q 1275 4134 1275 3809 
L 1275 3500 
L 2222 3500 
L 2222 3053 
L 1275 3053 
L 1275 0 
L 697 0 
L 697 3053 
L 147 3053 
L 147 3500 
L 697 3500 
L 697 3744 
Q 697 4328 969 4595 
Q 1241 4863 1831 4863 
L 2375 4863 
z
" transform="scale(0.015625)"/>
      <path id="DejaVuSans-54" d="M -19 4666 
L 3928 4666 
L 3928 4134 
L 2272 4134 
L 2272 0 
L 1638 0 
L 1638 4134 
L -19 4134 
L -19 4666 
z
" transform="scale(0.015625)"/>
      <path id="DejaVuSans-72" d="M 2631 2963 
Q 2534 3019 2420 3045 
Q 2306 3072 2169 3072 
Q 1681 3072 1420 2755 
Q 1159 2438 1159 1844 
L 1159 0 
L 581 0 
L 581 3500 
L 1159 3500 
L 1159 2956 
Q 1341 3275 1631 3429 
Q 1922 3584 2338 3584 
Q 2397 3584 2469 3576 
Q 2541 3569 2628 3553 
L 2631 2963 
z
" transform="scale(0.015625)"/>
      <path id="DejaVuSans-47" d="M 3809 666 
L 3809 1919 
L 2778 1919 
L 2778 2438 
L 4434 2438 
L 4434 434 
Q 4069 175 3628 42 
Q 3188 -91 2688 -91 
Q 1594 -91 976 548 
Q 359 1188 359 2328 
Q 359 3472 976 4111 
Q 1594 4750 2688 4750 
Q 3144 4750 3555 4637 
Q 3966 4525 4313 4306 
L 4313 3634 
Q 3963 3931 3569 4081 
Q 3175 4231 2741 4231 
Q 1884 4231 1454 3753 
Q 1025 3275 1025 2328 
Q 1025 1384 1454 906 
Q 1884 428 2741 428 
Q 3075 428 3337 486 
Q 3600 544 3809 666 
z
" transform="scale(0.015625)"/>
      <path id="DejaVuSans-75" d="M 544 1381 
L 544 3500 
L 1119 3500 
L 1119 1403 
Q 1119 906 1312 657 
Q 1506 409 1894 409 
Q 2359 409 2629 706 
Q 2900 1003 2900 1516 
L 2900 3500 
L 3475 3500 
L 3475 0 
L 2900 0 
L 2900 538 
Q 2691 219 2414 64 
Q 2138 -91 1772 -91 
Q 1169 -91 856 284 
Q 544 659 544 1381 
z
M 1991 3584 
L 1991 3584 
z
" transform="scale(0.015625)"/>
      <path id="DejaVuSans-44" d="M 1259 4147 
L 1259 519 
L 2022 519 
Q 2988 519 3436 956 
Q 3884 1394 3884 2338 
Q 3884 3275 3436 3711 
Q 2988 4147 2022 4147 
L 1259 4147 
z
M 628 4666 
L 1925 4666 
Q 3281 4666 3915 4102 
Q 4550 3538 4550 2338 
Q 4550 1131 3912 565 
Q 3275 0 1925 0 
L 628 0 
L 628 4666 
z
" transform="scale(0.015625)"/>
      <path id="DejaVuSans-61" d="M 2194 1759 
Q 1497 1759 1228 1600 
Q 959 1441 959 1056 
Q 959 750 1161 570 
Q 1363 391 1709 391 
Q 2188 391 2477 730 
Q 2766 1069 2766 1631 
L 2766 1759 
L 2194 1759 
z
M 3341 1997 
L 3341 0 
L 2766 0 
L 2766 531 
Q 2569 213 2275 61 
Q 1981 -91 1556 -91 
Q 1019 -91 701 211 
Q 384 513 384 1019 
Q 384 1609 779 1909 
Q 1175 2209 1959 2209 
L 2766 2209 
L 2766 2266 
Q 2766 2663 2505 2880 
Q 2244 3097 1772 3097 
Q 1472 3097 1187 3025 
Q 903 2953 641 2809 
L 641 3341 
Q 956 3463 1253 3523 
Q 1550 3584 1831 3584 
Q 2591 3584 2966 3190 
Q 3341 2797 3341 1997 
z
" transform="scale(0.015625)"/>
      <path id="DejaVuSans-74" d="M 1172 4494 
L 1172 3500 
L 2356 3500 
L 2356 3053 
L 1172 3053 
L 1172 1153 
Q 1172 725 1289 603 
Q 1406 481 1766 481 
L 2356 481 
L 2356 0 
L 1766 0 
Q 1100 0 847 248 
Q 594 497 594 1153 
L 594 3053 
L 172 3053 
L 172 3500 
L 594 3500 
L 594 4494 
L 1172 4494 
z
" transform="scale(0.015625)"/>
     </defs>
     <use xlink:href="#DejaVuSans-4c"/>
     <use xlink:href="#DejaVuSans-6f" x="53.962891"/>
     <use xlink:href="#DejaVuSans-73" x="115.144531"/>
     <use xlink:href="#DejaVuSans-73" x="167.244141"/>
     <use xlink:href="#DejaVuSans-65" x="219.34375"/>
     <use xlink:href="#DejaVuSans-73" x="280.867188"/>
     <use xlink:href="#DejaVuSans-20" x="332.966797"/>
     <use xlink:href="#DejaVuSans-6f" x="364.753906"/>
     <use xlink:href="#DejaVuSans-66" x="425.935547"/>
     <use xlink:href="#DejaVuSans-20" x="461.140625"/>
     <use xlink:href="#DejaVuSans-54" x="492.927734"/>
     <use xlink:href="#DejaVuSans-68" x="554.011719"/>
     <use xlink:href="#DejaVuSans-72" x="617.390625"/>
     <use xlink:href="#DejaVuSans-65" x="656.253906"/>
     <use xlink:href="#DejaVuSans-65" x="717.777344"/>
     <use xlink:href="#DejaVuSans-20" x="779.300781"/>
     <use xlink:href="#DejaVuSans-47" x="811.087891"/>
     <use xlink:href="#DejaVuSans-72" x="888.578125"/>
     <use xlink:href="#DejaVuSans-6f" x="927.441406"/>
     <use xlink:href="#DejaVuSans-75" x="988.623047"/>
     <use xlink:href="#DejaVuSans-70" x="1052.001953"/>
     <use xlink:href="#DejaVuSans-73" x="1115.478516"/>
     <use xlink:href="#DejaVuSans-20" x="1167.578125"/>
     <use xlink:href="#DejaVuSans-6f" x="1199.365234"/>
     <use xlink:href="#DejaVuSans-66" x="1260.546875"/>
     <use xlink:href="#DejaVuSans-20" x="1295.751953"/>
     <use xlink:href="#DejaVuSans-44" x="1327.539062"/>
     <use xlink:href="#DejaVuSans-61" x="1404.541016"/>
     <use xlink:href="#DejaVuSans-74" x="1465.820312"/>
     <use xlink:href="#DejaVuSans-61" x="1505.029297"/>
     <use xlink:href="#DejaVuSans-73" x="1566.308594"/>
     <use xlink:href="#DejaVuSans-65" x="1618.408203"/>
     <use xlink:href="#DejaVuSans-74" x="1679.931641"/>
    </g>
   </g>
   <g id="legend_1">
    <g id="patch_7">
     <path d="M 459.96 302.60625 
L 556.8 302.60625 
Q 559.2 302.60625 559.2 300.20625 
L 559.2 37.2 
Q 559.2 34.8 556.8 34.8 
L 459.96 34.8 
Q 457.56 34.8 457.56 37.2 
L 457.56 300.20625 
Q 457.56 302.60625 459.96 302.60625 
z
" style="fill: #ffffff; opacity: 0.8; stroke: #cccccc; stroke-linejoin: miter"/>
    </g>
    <g id="line2d_27">
     <path d="M 462.36 44.518125 
L 474.36 44.518125 
L 486.36 44.518125 
" style="fill: none; stroke: #ff0000; stroke-width: 1.5; stroke-linecap: square"/>
    </g>
    <g id="text_15">
     <!-- Dataset 1 -->
     <g transform="translate(495.96 48.718125)scale(0.12 -0.12)">
      <use xlink:href="#DejaVuSans-44"/>
      <use xlink:href="#DejaVuSans-61" x="77.001953"/>
      <use xlink:href="#DejaVuSans-74" x="138.28125"/>
      <use xlink:href="#DejaVuSans-61" x="177.490234"/>
      <use xlink:href="#DejaVuSans-73" x="238.769531"/>
      <use xlink:href="#DejaVuSans-65" x="290.869141"/>
      <use xlink:href="#DejaVuSans-74" x="352.392578"/>
      <use xlink:href="#DejaVuSans-20" x="391.601562"/>
      <use xlink:href="#DejaVuSans-31" x="423.388672"/>
     </g>
    </g>
    <g id="line2d_28">
     <path d="M 462.36 62.131875 
L 474.36 62.131875 
L 486.36 62.131875 
" style="fill: none; stroke: #ff0000; stroke-width: 1.5; stroke-linecap: square"/>
    </g>
    <g id="text_16">
     <!-- Dataset 1 -->
     <g transform="translate(495.96 66.331875)scale(0.12 -0.12)">
      <use xlink:href="#DejaVuSans-44"/>
      <use xlink:href="#DejaVuSans-61" x="77.001953"/>
      <use xlink:href="#DejaVuSans-74" x="138.28125"/>
      <use xlink:href="#DejaVuSans-61" x="177.490234"/>
      <use xlink:href="#DejaVuSans-73" x="238.769531"/>
      <use xlink:href="#DejaVuSans-65" x="290.869141"/>
      <use xlink:href="#DejaVuSans-74" x="352.392578"/>
      <use xlink:href="#DejaVuSans-20" x="391.601562"/>
      <use xlink:href="#DejaVuSans-31" x="423.388672"/>
     </g>
    </g>
    <g id="line2d_29">
     <path d="M 462.36 79.745625 
L 474.36 79.745625 
L 486.36 79.745625 
" style="fill: none; stroke: #ff0000; stroke-width: 1.5; stroke-linecap: square"/>
    </g>
    <g id="text_17">
     <!-- Dataset 1 -->
     <g transform="translate(495.96 83.945625)scale(0.12 -0.12)">
      <use xlink:href="#DejaVuSans-44"/>
      <use xlink:href="#DejaVuSans-61" x="77.001953"/>
      <use xlink:href="#DejaVuSans-74" x="138.28125"/>
      <use xlink:href="#DejaVuSans-61" x="177.490234"/>
      <use xlink:href="#DejaVuSans-73" x="238.769531"/>
      <use xlink:href="#DejaVuSans-65" x="290.869141"/>
      <use xlink:href="#DejaVuSans-74" x="352.392578"/>
      <use xlink:href="#DejaVuSans-20" x="391.601562"/>
      <use xlink:href="#DejaVuSans-31" x="423.388672"/>
     </g>
    </g>
    <g id="line2d_30">
     <path d="M 462.36 97.359375 
L 474.36 97.359375 
L 486.36 97.359375 
" style="fill: none; stroke: #ff0000; stroke-width: 1.5; stroke-linecap: square"/>
    </g>
    <g id="text_18">
     <!-- Dataset 1 -->
     <g transform="translate(495.96 101.559375)scale(0.12 -0.12)">
      <use xlink:href="#DejaVuSans-44"/>
      <use xlink:href="#DejaVuSans-61" x="77.001953"/>
      <use xlink:href="#DejaVuSans-74" x="138.28125"/>
      <use xlink:href="#DejaVuSans-61" x="177.490234"/>
      <use xlink:href="#DejaVuSans-73" x="238.769531"/>
      <use xlink:href="#DejaVuSans-65" x="290.869141"/>
      <use xlink:href="#DejaVuSans-74" x="352.392578"/>
      <use xlink:href="#DejaVuSans-20" x="391.601562"/>
      <use xlink:href="#DejaVuSans-31" x="423.388672"/>
     </g>
    </g>
    <g id="line2d_31">
     <path d="M 462.36 114.973125 
L 474.36 114.973125 
L 486.36 114.973125 
" style="fill: none; stroke: #ff0000; stroke-width: 1.5; stroke-linecap: square"/>
    </g>
    <g id="text_19">
     <!-- Dataset 1 -->
     <g transform="translate(495.96 119.173125)scale(0.12 -0.12)">
      <use xlink:href="#DejaVuSans-44"/>
      <use xlink:href="#DejaVuSans-61" x="77.001953"/>
      <use xlink:href="#DejaVuSans-74" x="138.28125"/>
      <use xlink:href="#DejaVuSans-61" x="177.490234"/>
      <use xlink:href="#DejaVuSans-73" x="238.769531"/>
      <use xlink:href="#DejaVuSans-65" x="290.869141"/>
      <use xlink:href="#DejaVuSans-74" x="352.392578"/>
      <use xlink:href="#DejaVuSans-20" x="391.601562"/>
      <use xlink:href="#DejaVuSans-31" x="423.388672"/>
     </g>
    </g>
    <g id="line2d_32">
     <path d="M 462.36 132.586875 
L 474.36 132.586875 
L 486.36 132.586875 
" style="fill: none; stroke: #008000; stroke-width: 1.5; stroke-linecap: square"/>
    </g>
    <g id="text_20">
     <!-- Dataset 2 -->
     <g transform="translate(495.96 136.786875)scale(0.12 -0.12)">
      <use xlink:href="#DejaVuSans-44"/>
      <use xlink:href="#DejaVuSans-61" x="77.001953"/>
      <use xlink:href="#DejaVuSans-74" x="138.28125"/>
      <use xlink:href="#DejaVuSans-61" x="177.490234"/>
      <use xlink:href="#DejaVuSans-73" x="238.769531"/>
      <use xlink:href="#DejaVuSans-65" x="290.869141"/>
      <use xlink:href="#DejaVuSans-74" x="352.392578"/>
      <use xlink:href="#DejaVuSans-20" x="391.601562"/>
      <use xlink:href="#DejaVuSans-32" x="423.388672"/>
     </g>
    </g>
    <g id="line2d_33">
     <path d="M 462.36 150.200625 
L 474.36 150.200625 
L 486.36 150.200625 
" style="fill: none; stroke: #008000; stroke-width: 1.5; stroke-linecap: square"/>
    </g>
    <g id="text_21">
     <!-- Dataset 2 -->
     <g transform="translate(495.96 154.400625)scale(0.12 -0.12)">
      <use xlink:href="#DejaVuSans-44"/>
      <use xlink:href="#DejaVuSans-61" x="77.001953"/>
      <use xlink:href="#DejaVuSans-74" x="138.28125"/>
      <use xlink:href="#DejaVuSans-61" x="177.490234"/>
      <use xlink:href="#DejaVuSans-73" x="238.769531"/>
      <use xlink:href="#DejaVuSans-65" x="290.869141"/>
      <use xlink:href="#DejaVuSans-74" x="352.392578"/>
      <use xlink:href="#DejaVuSans-20" x="391.601562"/>
      <use xlink:href="#DejaVuSans-32" x="423.388672"/>
     </g>
    </g>
    <g id="line2d_34">
     <path d="M 462.36 167.814375 
L 474.36 167.814375 
L 486.36 167.814375 
" style="fill: none; stroke: #008000; stroke-width: 1.5; stroke-linecap: square"/>
    </g>
    <g id="text_22">
     <!-- Dataset 2 -->
     <g transform="translate(495.96 172.014375)scale(0.12 -0.12)">
      <use xlink:href="#DejaVuSans-44"/>
      <use xlink:href="#DejaVuSans-61" x="77.001953"/>
      <use xlink:href="#DejaVuSans-74" x="138.28125"/>
      <use xlink:href="#DejaVuSans-61" x="177.490234"/>
      <use xlink:href="#DejaVuSans-73" x="238.769531"/>
      <use xlink:href="#DejaVuSans-65" x="290.869141"/>
      <use xlink:href="#DejaVuSans-74" x="352.392578"/>
      <use xlink:href="#DejaVuSans-20" x="391.601562"/>
      <use xlink:href="#DejaVuSans-32" x="423.388672"/>
     </g>
    </g>
    <g id="line2d_35">
     <path d="M 462.36 185.428125 
L 474.36 185.428125 
L 486.36 185.428125 
" style="fill: none; stroke: #008000; stroke-width: 1.5; stroke-linecap: square"/>
    </g>
    <g id="text_23">
     <!-- Dataset 2 -->
     <g transform="translate(495.96 189.628125)scale(0.12 -0.12)">
      <use xlink:href="#DejaVuSans-44"/>
      <use xlink:href="#DejaVuSans-61" x="77.001953"/>
      <use xlink:href="#DejaVuSans-74" x="138.28125"/>
      <use xlink:href="#DejaVuSans-61" x="177.490234"/>
      <use xlink:href="#DejaVuSans-73" x="238.769531"/>
      <use xlink:href="#DejaVuSans-65" x="290.869141"/>
      <use xlink:href="#DejaVuSans-74" x="352.392578"/>
      <use xlink:href="#DejaVuSans-20" x="391.601562"/>
      <use xlink:href="#DejaVuSans-32" x="423.388672"/>
     </g>
    </g>
    <g id="line2d_36">
     <path d="M 462.36 203.041875 
L 474.36 203.041875 
L 486.36 203.041875 
" style="fill: none; stroke: #008000; stroke-width: 1.5; stroke-linecap: square"/>
    </g>
    <g id="text_24">
     <!-- Dataset 2 -->
     <g transform="translate(495.96 207.241875)scale(0.12 -0.12)">
      <use xlink:href="#DejaVuSans-44"/>
      <use xlink:href="#DejaVuSans-61" x="77.001953"/>
      <use xlink:href="#DejaVuSans-74" x="138.28125"/>
      <use xlink:href="#DejaVuSans-61" x="177.490234"/>
      <use xlink:href="#DejaVuSans-73" x="238.769531"/>
      <use xlink:href="#DejaVuSans-65" x="290.869141"/>
      <use xlink:href="#DejaVuSans-74" x="352.392578"/>
      <use xlink:href="#DejaVuSans-20" x="391.601562"/>
      <use xlink:href="#DejaVuSans-32" x="423.388672"/>
     </g>
    </g>
    <g id="line2d_37">
     <path d="M 462.36 220.655625 
L 474.36 220.655625 
L 486.36 220.655625 
" style="fill: none; stroke: #0000ff; stroke-width: 1.5; stroke-linecap: square"/>
    </g>
    <g id="text_25">
     <!-- Dataset 3 -->
     <g transform="translate(495.96 224.855625)scale(0.12 -0.12)">
      <defs>
       <path id="DejaVuSans-33" d="M 2597 2516 
Q 3050 2419 3304 2112 
Q 3559 1806 3559 1356 
Q 3559 666 3084 287 
Q 2609 -91 1734 -91 
Q 1441 -91 1130 -33 
Q 819 25 488 141 
L 488 750 
Q 750 597 1062 519 
Q 1375 441 1716 441 
Q 2309 441 2620 675 
Q 2931 909 2931 1356 
Q 2931 1769 2642 2001 
Q 2353 2234 1838 2234 
L 1294 2234 
L 1294 2753 
L 1863 2753 
Q 2328 2753 2575 2939 
Q 2822 3125 2822 3475 
Q 2822 3834 2567 4026 
Q 2313 4219 1838 4219 
Q 1578 4219 1281 4162 
Q 984 4106 628 3988 
L 628 4550 
Q 988 4650 1302 4700 
Q 1616 4750 1894 4750 
Q 2613 4750 3031 4423 
Q 3450 4097 3450 3541 
Q 3450 3153 3228 2886 
Q 3006 2619 2597 2516 
z
" transform="scale(0.015625)"/>
      </defs>
      <use xlink:href="#DejaVuSans-44"/>
      <use xlink:href="#DejaVuSans-61" x="77.001953"/>
      <use xlink:href="#DejaVuSans-74" x="138.28125"/>
      <use xlink:href="#DejaVuSans-61" x="177.490234"/>
      <use xlink:href="#DejaVuSans-73" x="238.769531"/>
      <use xlink:href="#DejaVuSans-65" x="290.869141"/>
      <use xlink:href="#DejaVuSans-74" x="352.392578"/>
      <use xlink:href="#DejaVuSans-20" x="391.601562"/>
      <use xlink:href="#DejaVuSans-33" x="423.388672"/>
     </g>
    </g>
    <g id="line2d_38">
     <path d="M 462.36 238.269375 
L 474.36 238.269375 
L 486.36 238.269375 
" style="fill: none; stroke: #0000ff; stroke-width: 1.5; stroke-linecap: square"/>
    </g>
    <g id="text_26">
     <!-- Dataset 3 -->
     <g transform="translate(495.96 242.469375)scale(0.12 -0.12)">
      <use xlink:href="#DejaVuSans-44"/>
      <use xlink:href="#DejaVuSans-61" x="77.001953"/>
      <use xlink:href="#DejaVuSans-74" x="138.28125"/>
      <use xlink:href="#DejaVuSans-61" x="177.490234"/>
      <use xlink:href="#DejaVuSans-73" x="238.769531"/>
      <use xlink:href="#DejaVuSans-65" x="290.869141"/>
      <use xlink:href="#DejaVuSans-74" x="352.392578"/>
      <use xlink:href="#DejaVuSans-20" x="391.601562"/>
      <use xlink:href="#DejaVuSans-33" x="423.388672"/>
     </g>
    </g>
    <g id="line2d_39">
     <path d="M 462.36 255.883125 
L 474.36 255.883125 
L 486.36 255.883125 
" style="fill: none; stroke: #0000ff; stroke-width: 1.5; stroke-linecap: square"/>
    </g>
    <g id="text_27">
     <!-- Dataset 3 -->
     <g transform="translate(495.96 260.083125)scale(0.12 -0.12)">
      <use xlink:href="#DejaVuSans-44"/>
      <use xlink:href="#DejaVuSans-61" x="77.001953"/>
      <use xlink:href="#DejaVuSans-74" x="138.28125"/>
      <use xlink:href="#DejaVuSans-61" x="177.490234"/>
      <use xlink:href="#DejaVuSans-73" x="238.769531"/>
      <use xlink:href="#DejaVuSans-65" x="290.869141"/>
      <use xlink:href="#DejaVuSans-74" x="352.392578"/>
      <use xlink:href="#DejaVuSans-20" x="391.601562"/>
      <use xlink:href="#DejaVuSans-33" x="423.388672"/>
     </g>
    </g>
    <g id="line2d_40">
     <path d="M 462.36 273.496875 
L 474.36 273.496875 
L 486.36 273.496875 
" style="fill: none; stroke: #0000ff; stroke-width: 1.5; stroke-linecap: square"/>
    </g>
    <g id="text_28">
     <!-- Dataset 3 -->
     <g transform="translate(495.96 277.696875)scale(0.12 -0.12)">
      <use xlink:href="#DejaVuSans-44"/>
      <use xlink:href="#DejaVuSans-61" x="77.001953"/>
      <use xlink:href="#DejaVuSans-74" x="138.28125"/>
      <use xlink:href="#DejaVuSans-61" x="177.490234"/>
      <use xlink:href="#DejaVuSans-73" x="238.769531"/>
      <use xlink:href="#DejaVuSans-65" x="290.869141"/>
      <use xlink:href="#DejaVuSans-74" x="352.392578"/>
      <use xlink:href="#DejaVuSans-20" x="391.601562"/>
      <use xlink:href="#DejaVuSans-33" x="423.388672"/>
     </g>
    </g>
    <g id="line2d_41">
     <path d="M 462.36 291.110625 
L 474.36 291.110625 
L 486.36 291.110625 
" style="fill: none; stroke: #0000ff; stroke-width: 1.5; stroke-linecap: square"/>
    </g>
    <g id="text_29">
     <!-- Dataset 3 -->
     <g transform="translate(495.96 295.310625)scale(0.12 -0.12)">
      <use xlink:href="#DejaVuSans-44"/>
      <use xlink:href="#DejaVuSans-61" x="77.001953"/>
      <use xlink:href="#DejaVuSans-74" x="138.28125"/>
      <use xlink:href="#DejaVuSans-61" x="177.490234"/>
      <use xlink:href="#DejaVuSans-73" x="238.769531"/>
      <use xlink:href="#DejaVuSans-65" x="290.869141"/>
      <use xlink:href="#DejaVuSans-74" x="352.392578"/>
      <use xlink:href="#DejaVuSans-20" x="391.601562"/>
      <use xlink:href="#DejaVuSans-33" x="423.388672"/>
     </g>
    </g>
   </g>
  </g>
 </g>
 <defs>
  <clipPath id="p75812d895d">
   <rect x="54.59" y="28.8" width="510.61" height="356.2"/>
  </clipPath>
 </defs>
</svg>
